{"title":"Detroit_1-8-7_S01_E12_720p","uid":6098333,"size":1264700278,"categoryP":"video","categoryS":"hd___tv_shows","magnet":"?xt=urn:btih:35bece3295edb3eb364a132fde7cf2c0b28edda9&amp;dn=Detroit_1-8-7_S01_E12_720p&amp;tr=udp%3A%2F%2Ftracker.openbittorrent.com%3A80&amp;tr=udp%3A%2F%2Fopen.demonii.com%3A1337&amp;tr=udp%3A%2F%2Ftracker.coppersurfer.tk%3A6969&amp;tr=udp%3A%2F%2Fexodus.desync.com%3A6969","seeders":0,"leechers":0,"uploader":"thetorrentlord","files":2,"time":1294864381,"description":"This has a weather alert at the bottom for the entire show. If you want a pristine version you will have to wait \n\nfor someone else's upload.               *********************************************************************************** Detroit_1-8-7_S01_E12_720p.avi\nFormat                           : AVI\nFormat/Info                      : Audio Video Interleave\nFormat profile                   : OpenDML\nFile size                        : 1.18 GiB\nDuration                         : 40mn 59s\nOverall bit rate                 : 4 114 Kbps\nMovie name                       : Detroit_1-8-7_S01_E12_720p.mpg\nDirector                         : created.with.SUPER(C).v2009.bld.35\nWriting application              : SUPER(C)   \n\nVideo\nID                               : 0\nFormat                           : MPEG-4 Visual\nFormat profile                   : Simple@L3\nFormat settings, BVOP            : No\nFormat settings, QPel            : No\nFormat settings, GMC             : No warppoints\nFormat settings, Matrix          : Default (H.263)\nCodec ID                         : XVID\nCodec ID/Hint                    : XviD\nDuration                         : 40mn 59s\nBit rate                         : 3 985 Kbps\nWidth                            : 1 280 pixels\nHeight                           : 720 pixels\nDisplay aspect ratio             : 16:9\nFrame rate                       : 29.970 fps\nColor space                      : YUV\nChroma subsampling               : 4:2:0\nBit depth                        : 8 bits\nScan type                        : Progressive\nBits/(Pixel*Frame)               : 0.144\nStream size                      : 1.14 GiB (97%)\nWriting library                  : XviD 1.1.2 (UTC 2006-11-01)\n\nAudio\nID                               : 1\nFormat                           : MPEG Audio\nFormat version                   : Version 1\nFormat profile                   : Layer 3\nMode                             : Joint stereo\nMode extension                   : MS Stereo\nCodec ID                         : 55\nCodec ID/Hint                    : MP3\nDuration                         : 40mn 59s\nBit rate mode                    : Constant\nBit rate                         : 112 Kbps\nChannel(s)                       : 2 channels\nSampling rate                    : 48.0 KHz\nStream size                      : 32.8 MiB (3%)\nAlignment                        : Aligned on interleaves\nInterleave, duration             : 24 ms (0.72 video frame)\nInterleave, preload duration     : 24 ms\n\n","torrent":{"xt":"urn:btih:35bece3295edb3eb364a132fde7cf2c0b28edda9","amp;dn":"Detroit_1-8-7_S01_E12_720p","amp;tr":["udp%3A%2F%2Ftracker.openbittorrent.com%3A80","udp%3A%2F%2Fopen.demonii.com%3A1337","udp%3A%2F%2Ftracker.coppersurfer.tk%3A6969","udp%3A%2F%2Fexodus.desync.com%3A6969"],"infoHash":"35bece3295edb3eb364a132fde7cf2c0b28edda9","infoHashBuffer":{"type":"Buffer","data":[53,190,206,50,149,237,179,235,54,74,19,47,222,124,242,192,178,142,221,169]},"announce":[],"urlList":[]}}